<svg width="20" height="20" viewBox="0 0 20 20" fill="none" xmlns="http://www.w3.org/2000/svg">
<path d="M10.1341 9.05835C10.0508 9.05002 9.95078 9.05002 9.85911 9.05835C7.87578 8.99169 6.30078 7.36669 6.30078 5.36669C6.30078 3.32502 7.95078 1.66669 10.0008 1.66669C12.0424 1.66669 13.7008 3.32502 13.7008 5.36669C13.6924 7.36669 12.1174 8.99169 10.1341 9.05835Z" stroke="#525252" stroke-width="1.25" stroke-linecap="round" stroke-linejoin="round"/>
<path d="M5.96758 12.1333C3.95091 13.4833 3.95091 15.6833 5.96758 17.025C8.25924 18.5583 12.0176 18.5583 14.3092 17.025C16.3259 15.675 16.3259 13.475 14.3092 12.1333C12.0259 10.6083 8.26758 10.6083 5.96758 12.1333Z" stroke="#525252" stroke-width="1.25" stroke-linecap="round" stroke-linejoin="round"/>
</svg>
