<svg width="22" height="22" viewBox="0 0 22 22" fill="none" xmlns="http://www.w3.org/2000/svg">
<path d="M14.8415 1.83337H7.15982C3.82315 1.83337 1.83398 3.82254 1.83398 7.15921V14.8317C1.83398 18.1775 3.82315 20.1667 7.15982 20.1667H14.8323C18.169 20.1667 20.1582 18.1775 20.1582 14.8409V7.15921C20.1673 3.82254 18.1782 1.83337 14.8415 1.83337ZM15.3823 8.89171L10.1848 14.0892C10.0565 14.2175 9.88232 14.2909 9.69898 14.2909C9.51565 14.2909 9.34148 14.2175 9.21315 14.0892L6.61898 11.495C6.35315 11.2292 6.35315 10.7892 6.61898 10.5234C6.88482 10.2575 7.32482 10.2575 7.59065 10.5234L9.69898 12.6317L14.4107 7.92004C14.6765 7.65421 15.1165 7.65421 15.3823 7.92004C15.6482 8.18587 15.6482 8.61671 15.3823 8.89171Z" fill="#007BFF"/>
</svg>
